<?xml version="1.0" encoding="UTF-8" standalone="no"?>
<svg
   viewBox="0 0 762 762"
   fill="none"
   shape-rendering="auto"
   width="512"
   height="512"
   version="1.1"
   id="svg47"
   sodipodi:docname="adventurer-1681923524592.svg"
   xmlns:inkscape="http://www.inkscape.org/namespaces/inkscape"
   xmlns:sodipodi="http://sodipodi.sourceforge.net/DTD/sodipodi-0.dtd"
   xmlns="http://www.w3.org/2000/svg"
   xmlns:svg="http://www.w3.org/2000/svg"
   xmlns:rdf="http://www.w3.org/1999/02/22-rdf-syntax-ns#"
   xmlns:cc="http://creativecommons.org/ns#"
   xmlns:dc="http://purl.org/dc/elements/1.1/">
  <defs
     id="defs51" />
  <sodipodi:namedview
     id="namedview49"
     pagecolor="#ffffff"
     bordercolor="#000000"
     borderopacity="0.25"
     inkscape:showpageshadow="2"
     inkscape:pageopacity="0.0"
     inkscape:pagecheckerboard="0"
     inkscape:deskcolor="#d1d1d1"
     showgrid="false" />
  <desc
     id="desc2">&quot;Adventurer&quot; by &quot;Lisa Wischofsky&quot;, licensed under &quot;CC BY 4.0&quot;. / Remix of the original. - Created with dicebear.com</desc>
  <metadata
     id="metadata4">
    <rdf:RDF>
      <cc:Work>
        <dc:title>Adventurer</dc:title>
        <dc:creator>
          <cc:Agent
             rdf:about="https://www.instagram.com/lischi_art/">
            <dc:title>Lisa Wischofsky</dc:title>
          </cc:Agent>
        </dc:creator>
        <dc:source>https://www.figma.com/community/file/1184595184137881796</dc:source>
        <cc:license
           rdf:resource="https://creativecommons.org/licenses/by/4.0/" />
      </cc:Work>
    </rdf:RDF>
  </metadata>
  <mask
     id="viewboxMask">
    <rect
       width="762"
       height="762"
       rx="0"
       ry="0"
       x="0"
       y="0"
       fill="#ffffff"
       id="rect6" />
  </mask>
  <g
     inkscape:groupmode="layer"
     id="layer1"
     inkscape:label="Layer 1">
    <ellipse
       style="font-variation-settings:normal;opacity:1;vector-effect:none;fill:#ff9273;fill-opacity:1;fill-rule:evenodd;stroke-width:14.128;stroke-linecap:butt;stroke-linejoin:miter;stroke-miterlimit:4;stroke-dasharray:none;stroke-dashoffset:0;stroke-opacity:1;-inkscape-stroke:none;stop-color:#000000;stop-opacity:1"
       id="path340"
       cx="371.22797"
       cy="348.19449"
       rx="302.2034"
       ry="312.63406" />
  </g>
  <g
     mask="url(#viewboxMask)"
     id="g45">
    <path
       d="m 396,164.8 a 224.8,224.8 0 0 1 104.8,42.4 c 6.2,4.9 12.5,9.4 18,15 a 225.4,225.4 0 0 1 71.8,149 58.5,58.5 0 0 1 50.9,42.2 71,71 0 0 1 -27.6,76.5 c -11,7.7 -24.5,12 -38,11.7 -5,0 -10,-1.6 -15,-1.8 -1.9,2.2 -3.3,4.9 -4.8,7.3 A 223.3,223.3 0 0 1 389,609.8 c -11,0.7 -21.9,2 -33,0.7 A 223.7,223.7 0 0 1 177.2,268.2 223.4,223.4 0 0 1 352,163.5 c 14.6,-1.4 29.4,-0.3 44,1.3 z"
       fill="#000000"
       id="path9" />
    <path
       fill-rule="evenodd"
       clip-rule="evenodd"
       d="M 498.8,213.2 A 216,216 0 0 0 363,169 c -13,-0.2 -26.2,1.6 -39,4 a 218,218 0 0 0 -113.6,365.5 218.5,218.5 0 0 0 260.4,40.2 c 35,-18.8 64.2,-47.3 84.4,-81.5 l -3,-1.6 c -2.8,-1.4 -5.7,-3 -8,-5 -2.2,-2 -0.3,-5.8 2.7,-4.7 1.5,0.7 3,1.6 4.4,2.4 a 55,55 0 0 0 59.6,-3.6 64.5,64.5 0 0 0 25,-69.8 53.1,53.1 0 0 0 -24,-31 52.6,52.6 0 0 0 -47,-2.8 c -1.6,0.8 -3.4,1.5 -5,1.3 -2.5,-0.2 -2.8,-4.2 -0.6,-5.2 8,-4 16.5,-5.6 25.4,-6.4 a 217,217 0 0 0 -72,-146.4 c -4.4,-4 -8.7,-8.1 -13.9,-11.3 z m 107.6,196.2 c 2,-1.2 1.3,-5.1 -1.4,-5 -2,0 -4.2,0.8 -6.2,1.6 l -1.4,0.4 a 95.1,95.1 0 0 0 -25.5,12.4 c -2.2,2 -2.2,4.4 0.1,6.2 a 92,92 0 0 0 5.2,2.8 36,36 0 0 1 13,9.2 c -0.2,1.9 -2,3.4 -3.4,4.5 l -0.2,0.2 c -3.9,3 -8.8,5 -13.6,7 -2.5,1 -4.9,2 -7.1,3.1 -1.7,0.8 -2.6,2.2 -1.6,3.9 1,2 3.2,1.1 5,0.5 l 0.6,-0.2 5.4,-2.3 c 5.4,-2.3 11,-4.5 15.4,-8 2.7,-2.1 5.1,-5.1 5.4,-8.7 -0.5,-3.4 -2.7,-5.7 -5.3,-7.8 A 83,83 0 0 0 579.2,422 l -1.1,-0.6 c 5.4,-3 10.8,-5.6 16.6,-7.7 l 5,-1.7 a 52,52 0 0 0 6.7,-2.6 z"
       fill="#f2d3b1"
       id="path11" />
    <g
       transform="translate(-161,-83)"
       id="g17">
      <path
         d="m 494.8,474.6 c 2.5,0.2 5,1.4 7.4,2.2 9.3,3.7 18.8,6.1 28.5,8.4 21,5 42.8,8.8 64.3,6.9 7.4,-1 14.8,-2.4 22,-3.9 2.6,-0.6 5.5,0.8 5.2,3.7 a 65.5,65.5 0 0 1 -113,42 72.5,72.5 0 0 1 -15.4,-26.8 c 1.2,8 2.5,15.7 6.2,23 3,6 7.3,11 11.6,16 -1.1,1.3 -2.5,3.2 -4.5,2 -3.6,-2.7 -6.2,-6.8 -8.8,-10.4 -6.2,-9 -8.8,-19.5 -10,-30.2 -1,-7.3 0,-15 1.3,-22.2 0.7,-3.6 1.9,-8.7 5.2,-10.7 z m -58.7,5.2 c 2.2,0.8 3.2,3 4.1,5 5.6,12 7.8,26.2 4.8,39.3 a 41.1,41.1 0 0 1 -12,23 c -1.6,1.6 -3.5,1.5 -5.6,1.4 v -3.1 c 2.1,-2.6 4.8,-4.6 6.5,-7.5 a 52.5,52.5 0 0 0 7,-25.2 54.7,54.7 0 0 1 -86.3,33.7 c -9,-6.6 -16,-16 -19.7,-26.5 -0.6,-2 -1.2,-4.4 -0.5,-6.3 a 9,9 0 0 1 5.6,-2 c 8.8,-0.7 17.4,-2.7 26.1,-4.5 7.5,-1.5 14.6,-3.9 22,-6 9.5,-3.2 18.9,-7.8 28,-11.9 5.3,-2.3 10.3,-5 15.3,-7.8 1.4,-0.7 3,-1.8 4.7,-1.6 z"
         fill="#000000"
         id="path13" />
      <path
         d="m 497.9,481 c 5,2 9.7,3.9 14.8,5.2 13.9,3.7 28.1,7.8 42.3,9.6 2.6,0.4 5.2,1 7.7,1.5 a 23.5,23.5 0 0 0 41.1,14.5 26,26 0 0 0 6,-16.4 l 6.5,-1 a 59.9,59.9 0 0 1 -73.5,52.8 59.7,59.7 0 0 1 -45,-66.1 z m -64.1,5.2 A 49.4,49.4 0 1 1 340,517 c 14.8,-1.8 29.7,-4.5 44,-8.8 a 24,24 0 0 0 21,18 c 10.1,1 20,-5 23.9,-14.3 3,-7.1 2.3,-15.8 -1.9,-22.3 z"
         fill="#ffffff"
         id="path15" />
    </g>
    <g
       transform="translate(-161,-83)"
       id="g21">
      <path
         d="m 613.5,401.5 c 1.6,1 1.1,2.9 1.3,4.5 l -0.1,34 c 0.3,2.8 -2.5,4.2 -4.7,5 l -120,41.1 c -2.5,0.2 -2.9,-1.7 -3.5,-3.6 l -5,-18 c 1,5.8 1,11.7 1.3,17.5 0,1.4 0.5,4 -1,4.9 -2,1.4 -4,0 -4.6,-2 l -10.6,-38.4 c -0.4,-1.8 -0.7,-3.9 1.3,-4.9 2.2,-0.5 3.5,0.5 4,2.5 1.3,4.5 2.6,9 3.7,13.7 -0.7,-5.3 -1,-10.5 -1.2,-15.8 0,-1.3 -0.1,-3.7 1.7,-3.8 l 4.4,-0.7 123.6,-35.2 c 3.3,-0.9 6,-2.1 9.4,-0.8 z M 324,433.9 c 13.6,1.4 27.4,1.4 41,2.6 21,1 42.1,2.6 63.1,3.4 7.8,0.8 15.6,1 23.5,1.7 2.8,2.1 1,8 1.9,11.3 0.6,-3 0.2,-7 2,-9.5 2,-1.8 5,-0.1 4.7,2.6 -2.4,14 -4.8,28.1 -7,42.2 -0.8,2.9 -4.5,2.5 -5.3,-0.2 -0.3,-5 -0.2,-9.9 -0.3,-14.8 -1,4.3 -1.5,8.7 -2.5,13 -0.4,1.6 -1.2,2.8 -3,2.4 l -119,-21.3 c -1.8,-0.2 -2.8,-1.5 -3,-3.3 -1.5,-8 -2.6,-16 -4.2,-24 -0.2,-1.7 -0.7,-3.1 0.6,-4.6 2.1,-2.2 4.7,-1.6 7.5,-1.5 z"
         fill="#000000"
         id="path19" />
    </g>
    <g
       transform="translate(-161,-83)"
       id="g27">
      <path
         d="m 521.2,567.2 c 1.5,-0.3 3.3,-1 5,-0.7 2,0.8 2,3 1,4.6 -4.2,2.7 -10,2.9 -14.3,5 a 79.2,79.2 0 0 1 0,40.9 55.4,55.4 0 0 1 -20.7,31.3 c -7,5 -15.6,7.4 -24.2,6.5 a 41.8,41.8 0 0 1 -28.6,-17.3 72.2,72.2 0 0 1 -11.3,-60.2 c -2.4,-0.8 -5.6,-1.2 -7.5,-2.9 -0.6,-1.2 -0.2,-2.8 -0.3,-4.1 4.5,0 8.3,1.6 12.7,2.5 29.5,6 59.5,3 88.2,-5.5 z"
         fill="#000000"
         id="path23" />
      <path
         d="m 507,577.1 a 67.7,67.7 0 0 1 -6.8,54.2 c -4,6.5 -9.6,12 -16.7,15.2 -8,3.7 -17.5,3.4 -25.4,-0.6 -8,-4 -14.6,-11.4 -18.7,-19.3 a 69.5,69.5 0 0 1 -5.5,-48 c 10.5,2.4 21,3 31.8,3.2 -1,6.8 -1,13.4 -1.2,20.2 0,2 -0.2,4 0.5,6 1,1.6 4.6,1.1 4.7,-1.1 0.6,-8.4 0,-16.8 1.6,-25.2 12,-0.2 24,-2.2 35.6,-4.6 z"
         fill="#ea869e"
         id="path25" />
    </g>
    <g
       transform="translate(-161,-83)"
       id="g29" />
    <g
       transform="translate(-161,-83)"
       id="g31" />
    <g
       transform="translate(-161,-83)"
       id="g41">
      <g
         fill="#000000"
         id="g37">
        <path
           d="m 440.2,189.2 c 1.8,-0.1 3.6,-1 4.7,1 1.6,2 1.1,3.4 -0.6,5 A 62.2,62.2 0 0 0 426,224.5 c 30,-13.1 63.4,-19.6 96,-21 9.4,-0.7 18.6,-0.7 28,0 a 281,281 0 0 1 80.5,14.8 c 18.5,6.5 37,15.6 52,28.3 a 77.8,77.8 0 0 1 26.5,39.1 c 3.8,-0.2 7.3,-0.4 10.7,1.6 7.3,3.8 12.4,12 16,19.1 a 182.4,182.4 0 0 1 14.5,46.6 c 3.3,17.2 4.8,34.6 5.8,52 0.1,13 0.6,26.1 -0.8,39 -0.4,4.3 -0.3,8.7 -1.3,12.9 -1,3 -4.4,2.7 -6.9,3 -8.3,0.3 -17.8,1.7 -25,6.2 -1.3,2.5 -1.5,5.6 -2.7,8.2 -2,2.3 -4.8,4 -7.2,5.8 -6.3,4.3 -12.3,9.1 -18.5,13.5 -1.8,1.1 -4.1,2.7 -6,0.6 -1.3,-1.2 -1.3,-2.5 -1,-4.2 3.2,-19.6 2.9,-40.2 2.2,-60 0.1,-7.8 -0.9,-15.4 -1.3,-23.2 a 53.7,53.7 0 0 1 -19.3,-5 A 77.9,77.9 0 0 1 634,369 c -6,-11 -9.4,-23.4 -8.2,-36 A 1013.5,1013.5 0 0 1 466,346.2 c -10.8,-0.3 -21.5,0 -32.2,-1 -14.4,-0.6 -28.6,-1.8 -42.8,-4 -11.2,-1.7 -22.6,-4 -33.3,-8 -4.9,5 -8,10.7 -11.9,16.5 -2.3,3.5 -4,7.4 -6.3,10.7 -1,1.6 -3.2,1.8 -4.4,0.3 -1.2,-2.3 -1.6,-5.2 -2.1,-7.8 a 61.6,61.6 0 0 1 4,-37 c -2.4,-4.5 -4.6,-9 -5.8,-14 a 62,62 0 0 1 6.5,-44.3 c 9.3,-17.8 24.9,-32.5 41.6,-43.4 a 182.2,182.2 0 0 1 61,-25 z"
           id="path33" />
        <path
           d="m 340.5,321.2 c 3.1,4.3 7.2,7.2 11.8,9.7 -5,6.6 -9.6,13.5 -14,20.5 -1.2,-9 -1.5,-17.8 1.2,-26.6 z m 377.7,159.4 c 2,1.1 1.6,3.3 0,4.6 -8,6.8 -16.4,13 -25,19 -1.5,1 -3.2,2 -4.6,0.2 -1.8,-1.7 0,-3.3 1.3,-4.5 3.7,-3 7.8,-5.5 11.6,-8.4 4,-2.9 7.9,-6.2 11.8,-9.2 1.6,-1 3,-2.3 5,-1.7 z"
           id="path35" />
      </g>
      <path
         d="m 436,196.1 a 63,63 0 0 0 -15.4,27 c -0.3,2 -1.3,4.7 -0.2,6.5 1.5,0.8 3,1.2 4.6,1.7 41.8,-19 88.5,-24.5 134,-21.5 29,2.2 58.4,8.3 85.1,20.1 15.2,6.8 30.4,16 42,28 a 63.7,63.7 0 0 1 18,33 l 1.8,1.3 c 4.1,-0.7 7.6,-1.8 11.5,0.4 6.4,3.7 10.8,11.5 14,18 a 198.7,198.7 0 0 1 14.4,50.4 c 2,12.6 3.5,25.3 4,38 0.1,8 0.9,16 0.6,24 -0.4,10.5 -0.6,21 -1.8,31.4 -7.8,0.3 -15.2,1 -22.6,3.7 -2.8,1 -6.4,2.2 -8.4,4.5 -1.5,2.7 -2,6 -3,9 L 693,487.2 c 1.6,-9.3 1.4,-18.7 2.1,-28.2 0.5,-9.4 -0.6,-18.6 -0.7,-28 -0.2,-5.4 -0.2,-10.7 -0.8,-16 -0.5,-4.7 -0.5,-9 -2,-13.5 -5.7,-0.8 -11.2,-1 -16.6,-3.2 a 70.6,70.6 0 0 1 -37,-34.2 52,52 0 0 1 -5.5,-34.7 c -2.6,-3.4 -7.3,-2.2 -10.9,-1.7 A 964.5,964.5 0 0 1 447,340 c -10,-0.1 -20,-0.5 -30,-1.4 -17,-1.5 -34.6,-3.6 -51,-8.6 a 57,57 0 0 1 -17,-8 47.7,47.7 0 0 1 -12.7,-43 c 3,-16 12.6,-30.5 23.9,-41.8 a 165,165 0 0 1 75.7,-41 z"
         fill="#592454"
         id="path39" />
    </g>
    <g
       transform="translate(-161,-83)"
       id="g43" />
  </g>
</svg>
