<?xml version="1.0" encoding="UTF-8" standalone="no"?>
<svg
   viewBox="0 0 762 762"
   fill="none"
   shape-rendering="auto"
   width="512"
   height="512"
   version="1.1"
   id="svg51"
   sodipodi:docname="adventurer-1681889289447.svg"
   inkscape:export-filename="avatar4"
   inkscape:export-xdpi="100.40681"
   inkscape:export-ydpi="100.40681"
   xmlns:inkscape="http://www.inkscape.org/namespaces/inkscape"
   xmlns:sodipodi="http://sodipodi.sourceforge.net/DTD/sodipodi-0.dtd"
   xmlns="http://www.w3.org/2000/svg"
   xmlns:svg="http://www.w3.org/2000/svg"
   xmlns:rdf="http://www.w3.org/1999/02/22-rdf-syntax-ns#"
   xmlns:cc="http://creativecommons.org/ns#"
   xmlns:dc="http://purl.org/dc/elements/1.1/">
  <defs
     id="defs55" />
  <sodipodi:namedview
     id="namedview53"
     pagecolor="#ffffff"
     bordercolor="#000000"
     borderopacity="0.25"
     inkscape:showpageshadow="2"
     inkscape:pageopacity="0.0"
     inkscape:pagecheckerboard="0"
     inkscape:deskcolor="#d1d1d1"
     showgrid="false" />
  <desc
     id="desc2">&quot;Adventurer&quot; by &quot;Lisa Wischofsky&quot;, licensed under &quot;CC BY 4.0&quot;. / Remix of the original. - Created with dicebear.com</desc>
  <metadata
     id="metadata4">
    <rdf:RDF>
      <cc:Work>
        <dc:title>Adventurer</dc:title>
        <dc:creator>
          <cc:Agent
             rdf:about="https://www.instagram.com/lischi_art/">
            <dc:title>Lisa Wischofsky</dc:title>
          </cc:Agent>
        </dc:creator>
        <dc:source>https://www.figma.com/community/file/1184595184137881796</dc:source>
        <cc:license
           rdf:resource="https://creativecommons.org/licenses/by/4.0/" />
      </cc:Work>
    </rdf:RDF>
  </metadata>
  <mask
     id="viewboxMask">
    <rect
       width="762"
       height="762"
       rx="0"
       ry="0"
       x="0"
       y="0"
       fill="#ffffff"
       id="rect6" />
  </mask>
  <g
     inkscape:groupmode="layer"
     id="layer1"
     inkscape:label="Layer 1">
    <ellipse
       style="font-variation-settings:normal;opacity:1;vector-effect:none;fill:#ff8de9;fill-opacity:1;fill-rule:evenodd;stroke-width:13.4663;stroke-linecap:butt;stroke-linejoin:miter;stroke-miterlimit:4;stroke-dasharray:none;stroke-dashoffset:0;stroke-opacity:1;-inkscape-stroke:none;stop-color:#000000;stop-opacity:1"
       id="path344"
       cx="373.36859"
       cy="374.71753"
       rx="319.4548"
       ry="313.26736" />
  </g>
  <g
     mask="url(#viewboxMask)"
     id="g49"
     transform="matrix(0.84110349,0,0,0.92634818,61.736033,8.6458246)">
    <path
       d="m 396,164.8 a 224.8,224.8 0 0 1 104.8,42.4 c 6.2,4.9 12.5,9.4 18,15 a 225.4,225.4 0 0 1 71.8,149 58.5,58.5 0 0 1 50.9,42.2 71,71 0 0 1 -27.6,76.5 c -11,7.7 -24.5,12 -38,11.7 -5,0 -10,-1.6 -15,-1.8 -1.9,2.2 -3.3,4.9 -4.8,7.3 A 223.3,223.3 0 0 1 389,609.8 c -11,0.7 -21.9,2 -33,0.7 A 223.7,223.7 0 0 1 177.2,268.2 223.4,223.4 0 0 1 352,163.5 c 14.6,-1.4 29.4,-0.3 44,1.3 z"
       fill="#000000"
       id="path9" />
    <path
       fill-rule="evenodd"
       clip-rule="evenodd"
       d="M 498.8,213.2 A 216,216 0 0 0 363,169 c -13,-0.2 -26.2,1.6 -39,4 a 218,218 0 0 0 -113.6,365.5 218.5,218.5 0 0 0 260.4,40.2 c 35,-18.8 64.2,-47.3 84.4,-81.5 l -3,-1.6 c -2.8,-1.4 -5.7,-3 -8,-5 -2.2,-2 -0.3,-5.8 2.7,-4.7 1.5,0.7 3,1.6 4.4,2.4 a 55,55 0 0 0 59.6,-3.6 64.5,64.5 0 0 0 25,-69.8 53.1,53.1 0 0 0 -24,-31 52.6,52.6 0 0 0 -47,-2.8 c -1.6,0.8 -3.4,1.5 -5,1.3 -2.5,-0.2 -2.8,-4.2 -0.6,-5.2 8,-4 16.5,-5.6 25.4,-6.4 a 217,217 0 0 0 -72,-146.4 c -4.4,-4 -8.7,-8.1 -13.9,-11.3 z m 107.6,196.2 c 2,-1.2 1.3,-5.1 -1.4,-5 -2,0 -4.2,0.8 -6.2,1.6 l -1.4,0.4 a 95.1,95.1 0 0 0 -25.5,12.4 c -2.2,2 -2.2,4.4 0.1,6.2 a 92,92 0 0 0 5.2,2.8 36,36 0 0 1 13,9.2 c -0.2,1.9 -2,3.4 -3.4,4.5 l -0.2,0.2 c -3.9,3 -8.8,5 -13.6,7 -2.5,1 -4.9,2 -7.1,3.1 -1.7,0.8 -2.6,2.2 -1.6,3.9 1,2 3.2,1.1 5,0.5 l 0.6,-0.2 5.4,-2.3 c 5.4,-2.3 11,-4.5 15.4,-8 2.7,-2.1 5.1,-5.1 5.4,-8.7 -0.5,-3.4 -2.7,-5.7 -5.3,-7.8 A 83,83 0 0 0 579.2,422 l -1.1,-0.6 c 5.4,-3 10.8,-5.6 16.6,-7.7 l 5,-1.7 a 52,52 0 0 0 6.7,-2.6 z"
       fill="#9e5622"
       id="path11" />
    <g
       transform="translate(-161,-83)"
       id="g23">
      <path
         d="M 551.3,424.3 A 65.4,65.4 0 0 1 610.9,525.9 65.2,65.2 0 1 1 551.3,424.3 Z"
         fill="#000000"
         id="path13" />
      <path
         d="M 549.3,430.3 A 59.6,59.6 0 1 1 564.5,548.5 59.6,59.6 0 0 1 549.3,430.3 Z"
         fill="#ffffff"
         id="path15" />
      <path
         d="m 381.2,447 a 55.4,55.4 0 0 1 58.7,40 55.5,55.5 0 0 1 -26.7,63.1 54.7,54.7 0 0 1 -81.3,-46.1 55.1,55.1 0 0 1 49.4,-57 z"
         fill="#000000"
         id="path17" />
      <path
         d="m 378.3,453.3 a 49,49 0 0 1 57.2,56.6 49.1,49.1 0 0 1 -93.1,12.9 49.3,49.3 0 0 1 35.9,-69.5 z"
         fill="#ffffff"
         id="path19" />
      <path
         d="m 526.5,467.5 c 12,-2.9 24.9,4.2 29.3,15.6 a 26,26 0 0 1 0,18.7 25.6,25.6 0 1 1 -29.3,-34.3 z m -128.2,10.9 a 23.2,23.2 0 0 1 27,18 c 0.7,5.7 0.6,11.4 -2.6,16.2 a 23.4,23.4 0 0 1 -23.6,11.2 23.1,23.1 0 0 1 -0.8,-45.4 z"
         fill="#000000"
         id="path21" />
    </g>
    <g
       transform="translate(-161,-83)"
       id="g27">
      <path
         d="m 456,380.4 c 2.3,-0.1 2.9,1.7 2.7,3.6 -0.5,4.7 -0.8,9.8 -2.4,14.2 -1.3,0.4 -2.6,0.6 -4,0.9 -1.1,-4.8 0,-10.3 0.7,-15.1 0.4,-1.7 0.8,-3.9 3,-3.6 z m 20.8,6.2 c 0,3.3 -0.4,6.4 -0.7,9.6 41.7,0.5 83.3,0.4 125,0.8 2.2,0 4,0.8 6,1.6 -0.7,1.5 -0.3,3.8 -2.3,4 -8,1.4 -16.6,0.6 -24.8,1 -17.3,0.6 -34.7,1 -52,1.5 -17,0.2 -34,1.2 -51,1.4 -3.4,0.4 -6.1,-2.7 -7.3,-5.5 0,-4.4 1,-9.1 2,-13.5 1.4,-2.4 3,-1.6 5,-0.9 z m -37,5.6 c 0,4.9 0,10.8 -2.2,15.2 -3.3,1.5 -7.2,1.8 -10.6,2.5 l -77,14 c -4.2,0.8 -8.7,2.2 -13,2.1 -2.6,-0.5 -3.3,-3.7 -0.9,-5 3.2,-1.4 7,-1.7 10.4,-2.6 l 87.2,-20.3 1.3,-5.7 c 1.6,-0.2 3.2,-0.2 4.8,-0.2 z"
         fill="#000000"
         id="path25" />
    </g>
    <g
       transform="translate(-161,-83)"
       id="g35">
      <path
         d="m 473,557.8 a 84.3,84.3 0 0 1 43.7,8.6 188.2,188.2 0 0 1 -65.7,15.5 c -7.2,0 -14.3,0.2 -21.5,-0.6 0.7,-5.9 3,-9.6 7.7,-13 A 68,68 0 0 1 473,557.8 Z"
         fill="#d31e1e"
         id="path29" />
      <path
         d="m 525,563.7 1.2,2.3 c 0.4,2.7 -2,3.4 -3.8,4.4 a 184,184 0 0 1 -85.8,17 c -5,-0.6 -10.2,-0.7 -15,-2 -2.3,-1 -2.6,-4 -0.3,-5.2 2.7,0 5.5,0.9 8.2,1 7.2,1 14.3,0.7 21.5,0.7 22.5,-0.8 45,-6.8 65.7,-15.5 2.8,-1.2 5.2,-2.6 8.3,-2.7 z"
         fill="#000000"
         id="path31" />
      <path
         d="m 510.2,575.4 c -2,10.1 -10.3,17.2 -19.2,21.6 a 56.4,56.4 0 0 1 -34,4.8 c -8.7,-1.8 -16.5,-6.2 -20.4,-14.5 a 184,184 0 0 0 73.7,-12 z"
         fill="#d31e1e"
         id="path33" />
    </g>
    <g
       transform="translate(-161,-83)"
       id="g37" />
    <g
       transform="translate(-161,-83)"
       id="g39" />
    <g
       transform="translate(-161,-83)"
       id="g45">
      <path
         d="m 559,229 c 42.7,5.5 86.5,17 124.8,37.2 25.9,13.7 50.7,32.2 67,56.9 4.1,5.7 6,12 8.6,18.4 4.8,12 7.7,24 11,36.5 8,31 18,61.6 29,91.6 12.8,35 27.1,69.2 43.5,102.5 1.4,2.9 3,5.6 4.6,8.4 0.8,1.3 1,2.7 0,4 a 64,64 0 0 1 -16,13 226,226 0 0 1 -39.7,19.1 423.3,423.3 0 0 1 -112.8,25.8 c -3.9,0.3 -7,1.3 -10.6,-1 0.4,-2.5 0.4,-4.6 2.5,-6.4 5.5,-5 11,-10.2 16.2,-15.8 a 402.6,402.6 0 0 1 -64.6,27.4 c -2.9,0.8 -6.5,2.3 -9.5,1.6 -1.9,-0.9 -2.1,-2.8 -1.4,-4.6 8.7,-19.2 12.2,-41.7 15,-62.5 a 579,579 0 0 0 4.4,-70 c 0.1,-18.2 0,-36.5 -1.8,-54.6 -37.5,-3.9 -74.6,-15 -108.8,-30.9 -24.2,-11.4 -48,-25.9 -68,-43.9 a 157.3,157.3 0 0 1 -23.4,-26 c -1.2,9.4 -1,18.9 -0.9,28.4 0,3.6 0.3,7.1 1.3,10.6 0.3,1.7 1.2,3.3 0,4.8 -1.1,1.7 -3.7,1.1 -5.4,0.6 A 57.4,57.4 0 0 1 393.6,374.5 73.7,73.7 0 0 1 383.5,334.1 181.7,181.7 0 0 0 351,366 a 269,269 0 0 0 -32.6,48.4 36.7,36.7 0 0 0 -3.4,8.5 218.3,218.3 0 0 0 92.4,228.6 c 1.2,0.8 2.4,1.6 3.5,2.6 0.7,1.7 1,3 -0.4,4.5 -2.4,1.4 -5.3,2 -8,3 -22,6.8 -44,13.4 -65.7,21.3 -21.9,8 -43.2,17.6 -65.2,25.5 -1.4,-1 -2.4,-2 -3.3,-3.4 3.6,-7.7 9.3,-14 12.5,-22.1 9.8,-24.3 10,-51.2 9.3,-77 0,-14.7 -1.2,-29.3 -1.9,-44 -1.4,-21.7 -2.6,-43.3 -3.3,-65 -0.6,-27.3 -2.1,-55.7 -0.1,-83 1.4,-22 5.4,-44.2 13,-65 a 61,61 0 0 1 13.4,-21.7 c 4.9,-5 9.8,-10.2 15.2,-14.8 5.3,-4.5 11,-8.3 16.4,-12.6 15.9,-12.5 31,-25.7 47,-38 a 225.5,225.5 0 0 1 51,-31 60.4,60.4 0 0 1 21.1,-4.6 496,496 0 0 1 97,2.7 z"
         fill="#000000"
         id="path41" />
      <path
         d="m 512,231.2 c 48,1.5 97.4,9.8 142.2,27.7 a 248,248 0 0 1 57.3,31.5 148,148 0 0 1 35.3,36.9 c 2.9,4.4 5,9.2 6.6,14.2 2.5,7.9 6,15.3 7.7,23.5 8.5,35 19.4,69.3 31.6,103.2 13.4,36.6 28.2,72.8 45.6,107.6 1,2.2 2.2,4.3 3.6,6.4 a 96.3,96.3 0 0 1 -21.5,15.2 332,332 0 0 1 -68.7,26.1 c -24.3,6.7 -49,11.4 -74.2,13.2 8,-7.1 15.4,-14.7 22.2,-23 1.4,-1.7 2.9,-3.1 4.8,-4.2 6.2,-3.7 12.3,-7.6 18.1,-11.8 1.4,-1 2.2,-2.4 3,-3.8 -1,-1.2 -1.7,-2.4 -3.6,-2.4 -3,1.3 -5.5,3.5 -8.2,5.3 A 387.7,387.7 0 0 1 619,641.4 c 5.5,-14.5 8.8,-30.1 11.3,-45.4 4,-24.8 5.8,-49.8 6.5,-75 0.5,-33.6 -0.5,-66.7 -6,-100 -0.2,-1.6 -0.8,-3.6 -2.8,-3.4 -3,-0.2 -3.1,2.4 -2.8,4.6 1.6,9.4 2.8,19 3.6,28.4 -34.3,-4 -67.8,-13.4 -99.3,-27.3 -21.3,-9.5 -42,-21.1 -60.5,-35.3 -11.5,-8.9 -22.5,-19.1 -31.3,-30.6 -2.4,-3.2 -4.2,-6.3 -7.2,-8.9 -1.3,-1.4 -2.8,-1 -4.5,-0.7 -2,2 -2.3,4.5 -2.6,7.2 a 157,157 0 0 0 -0.2,38.4 c -7.3,-2.8 -13.8,-8 -18.8,-13.8 A 66.9,66.9 0 0 1 398,304 c 1.1,-1.9 1.4,-4.3 -0.9,-5.4 -2.3,-0.3 -2.9,0.7 -4,2.4 a 68.5,68.5 0 0 0 -9.3,26.7 c -12.5,7.4 -23,18.7 -32.7,29.4 a 337.3,337.3 0 0 0 -25.4,33.5 200.6,200.6 0 0 0 -23.4,47.6 99.9,99.9 0 0 0 -4,17.9 c 0,2.9 2.9,4.1 5,2.2 0.7,-1.6 1,-3.3 1.5,-5 a 223.8,223.8 0 0 0 98,202.2 c -25.3,8 -51.7,15.7 -76.8,25.4 -16.3,6.2 -32.2,13.3 -48.5,19.8 4.8,-7.1 9,-14.5 11.4,-22.7 8.2,-25.3 7.6,-51.8 7.1,-78 -0.8,-11.4 -0.8,-22.7 -1.7,-34 -0.8,-10.3 -1,-20.7 -2,-31 -0.6,-13 -1,-26 -1.7,-39 -0.7,-23.3 -0.6,-46.7 -0.5,-70 0.5,-22.2 3.5,-44.4 9.6,-65.8 1.7,-5.8 4.4,-11.1 7,-16.6 4,-8.4 10.3,-13.8 16.7,-20.2 5.8,-6 12.4,-11 19.1,-15.9 27.3,-20.9 53.8,-46.3 83.8,-63.2 a 99.5,99.5 0 0 1 22.7,-10 c 7.3,-2.1 14.4,-2.3 22,-2.7 13.6,-0.8 27.4,-0.5 41,-0.4 z"
         fill="#e5d7a3"
         id="path43" />
    </g>
    <g
       transform="translate(-161,-83)"
       id="g47" />
  </g>
</svg>
