<?xml version="1.0" encoding="UTF-8" standalone="no"?>
<svg
   viewBox="0 0 762 762"
   fill="none"
   shape-rendering="auto"
   width="512"
   height="512"
   version="1.1"
   id="svg2606"
   sodipodi:docname="adventurer-1681889280590.svg"
   xmlns:inkscape="http://www.inkscape.org/namespaces/inkscape"
   xmlns:sodipodi="http://sodipodi.sourceforge.net/DTD/sodipodi-0.dtd"
   xmlns="http://www.w3.org/2000/svg"
   xmlns:svg="http://www.w3.org/2000/svg"
   xmlns:rdf="http://www.w3.org/1999/02/22-rdf-syntax-ns#"
   xmlns:cc="http://creativecommons.org/ns#"
   xmlns:dc="http://purl.org/dc/elements/1.1/">
  <defs
     id="defs2610" />
  <sodipodi:namedview
     id="namedview2608"
     pagecolor="#ffffff"
     bordercolor="#000000"
     borderopacity="0.25"
     inkscape:showpageshadow="2"
     inkscape:pageopacity="0.0"
     inkscape:pagecheckerboard="0"
     inkscape:deskcolor="#d1d1d1"
     showgrid="false" />
  <desc
     id="desc2557">&quot;Adventurer&quot; by &quot;Lisa Wischofsky&quot;, licensed under &quot;CC BY 4.0&quot;. / Remix of the original. - Created with dicebear.com</desc>
  <metadata
     id="metadata2559">
    <rdf:RDF>
      <cc:Work>
        <dc:title>Adventurer</dc:title>
        <dc:creator>
          <cc:Agent
             rdf:about="https://www.instagram.com/lischi_art/">
            <dc:title>Lisa Wischofsky</dc:title>
          </cc:Agent>
        </dc:creator>
        <dc:source>https://www.figma.com/community/file/1184595184137881796</dc:source>
        <cc:license
           rdf:resource="https://creativecommons.org/licenses/by/4.0/" />
      </cc:Work>
    </rdf:RDF>
  </metadata>
  <mask
     id="viewboxMask">
    <rect
       width="762"
       height="762"
       rx="0"
       ry="0"
       x="0"
       y="0"
       fill="#ffffff"
       id="rect2561" />
  </mask>
  <g
     inkscape:groupmode="layer"
     id="layer2"
     inkscape:label="Layer 1">
    <ellipse
       style="font-variation-settings:normal;opacity:1;vector-effect:none;fill:#e2db00;fill-opacity:1;fill-rule:evenodd;stroke-width:13.4663;stroke-linecap:butt;stroke-linejoin:miter;stroke-miterlimit:4;stroke-dasharray:none;stroke-dashoffset:0;stroke-opacity:1;-inkscape-stroke:none;stop-color:#000000;stop-opacity:1"
       id="path2795"
       cx="378.74539"
       cy="385.05002"
       rx="326.92154"
       ry="337.56433" />
  </g>
  <g
     mask="url(#viewboxMask)"
     id="g2604"
     transform="matrix(0.82004827,0,0,0.86914065,72.466649,17.087745)">
    <path
       d="m 396,164.8 a 224.8,224.8 0 0 1 104.8,42.4 c 6.2,4.9 12.5,9.4 18,15 a 225.4,225.4 0 0 1 71.8,149 58.5,58.5 0 0 1 50.9,42.2 71,71 0 0 1 -27.6,76.5 c -11,7.7 -24.5,12 -38,11.7 -5,0 -10,-1.6 -15,-1.8 -1.9,2.2 -3.3,4.9 -4.8,7.3 A 223.3,223.3 0 0 1 389,609.8 c -11,0.7 -21.9,2 -33,0.7 A 223.7,223.7 0 0 1 177.2,268.2 223.4,223.4 0 0 1 352,163.5 c 14.6,-1.4 29.4,-0.3 44,1.3 z"
       fill="#000000"
       id="path2564" />
    <path
       fill-rule="evenodd"
       clip-rule="evenodd"
       d="M 498.8,213.2 A 216,216 0 0 0 363,169 c -13,-0.2 -26.2,1.6 -39,4 a 218,218 0 0 0 -113.6,365.5 218.5,218.5 0 0 0 260.4,40.2 c 35,-18.8 64.2,-47.3 84.4,-81.5 l -3,-1.6 c -2.8,-1.4 -5.7,-3 -8,-5 -2.2,-2 -0.3,-5.8 2.7,-4.7 1.5,0.7 3,1.6 4.4,2.4 a 55,55 0 0 0 59.6,-3.6 64.5,64.5 0 0 0 25,-69.8 53.1,53.1 0 0 0 -24,-31 52.6,52.6 0 0 0 -47,-2.8 c -1.6,0.8 -3.4,1.5 -5,1.3 -2.5,-0.2 -2.8,-4.2 -0.6,-5.2 8,-4 16.5,-5.6 25.4,-6.4 a 217,217 0 0 0 -72,-146.4 c -4.4,-4 -8.7,-8.1 -13.9,-11.3 z m 107.6,196.2 c 2,-1.2 1.3,-5.1 -1.4,-5 -2,0 -4.2,0.8 -6.2,1.6 l -1.4,0.4 a 95.1,95.1 0 0 0 -25.5,12.4 c -2.2,2 -2.2,4.4 0.1,6.2 a 92,92 0 0 0 5.2,2.8 36,36 0 0 1 13,9.2 c -0.2,1.9 -2,3.4 -3.4,4.5 l -0.2,0.2 c -3.9,3 -8.8,5 -13.6,7 -2.5,1 -4.9,2 -7.1,3.1 -1.7,0.8 -2.6,2.2 -1.6,3.9 1,2 3.2,1.1 5,0.5 l 0.6,-0.2 5.4,-2.3 c 5.4,-2.3 11,-4.5 15.4,-8 2.7,-2.1 5.1,-5.1 5.4,-8.7 -0.5,-3.4 -2.7,-5.7 -5.3,-7.8 A 83,83 0 0 0 579.2,422 l -1.1,-0.6 c 5.4,-3 10.8,-5.6 16.6,-7.7 l 5,-1.7 a 52,52 0 0 0 6.7,-2.6 z"
       fill="#9e5622"
       id="path2566" />
    <g
       transform="translate(-161,-83)"
       id="g2572">
      <path
         d="m 494.8,474.6 c 2.5,0.2 5,1.4 7.4,2.2 9.3,3.7 18.8,6.1 28.5,8.4 21,5 42.8,8.8 64.3,6.9 7.4,-1 14.8,-2.4 22,-3.9 2.6,-0.6 5.5,0.8 5.2,3.7 a 65.5,65.5 0 0 1 -113,42 72.5,72.5 0 0 1 -15.4,-26.8 c 1.2,8 2.5,15.7 6.2,23 3,6 7.3,11 11.6,16 -1.1,1.3 -2.5,3.2 -4.5,2 -3.6,-2.7 -6.2,-6.8 -8.8,-10.4 -6.2,-9 -8.8,-19.5 -10,-30.2 -1,-7.3 0,-15 1.3,-22.2 0.7,-3.6 1.9,-8.7 5.2,-10.7 z m -58.7,5.2 c 2.2,0.8 3.2,3 4.1,5 5.6,12 7.8,26.2 4.8,39.3 a 41.1,41.1 0 0 1 -12,23 c -1.6,1.6 -3.5,1.5 -5.6,1.4 v -3.1 c 2.1,-2.6 4.8,-4.6 6.5,-7.5 a 52.5,52.5 0 0 0 7,-25.2 54.7,54.7 0 0 1 -86.3,33.7 c -9,-6.6 -16,-16 -19.7,-26.5 -0.6,-2 -1.2,-4.4 -0.5,-6.3 a 9,9 0 0 1 5.6,-2 c 8.8,-0.7 17.4,-2.7 26.1,-4.5 7.5,-1.5 14.6,-3.9 22,-6 9.5,-3.2 18.9,-7.8 28,-11.9 5.3,-2.3 10.3,-5 15.3,-7.8 1.4,-0.7 3,-1.8 4.7,-1.6 z"
         fill="#000000"
         id="path2568" />
      <path
         d="m 497.9,481 c 5,2 9.7,3.9 14.8,5.2 13.9,3.7 28.1,7.8 42.3,9.6 2.6,0.4 5.2,1 7.7,1.5 a 23.5,23.5 0 0 0 41.1,14.5 26,26 0 0 0 6,-16.4 l 6.5,-1 a 59.9,59.9 0 0 1 -73.5,52.8 59.7,59.7 0 0 1 -45,-66.1 z m -64.1,5.2 A 49.4,49.4 0 1 1 340,517 c 14.8,-1.8 29.7,-4.5 44,-8.8 a 24,24 0 0 0 21,18 c 10.1,1 20,-5 23.9,-14.3 3,-7.1 2.3,-15.8 -1.9,-22.3 z"
         fill="#ffffff"
         id="path2570" />
    </g>
    <g
       transform="translate(-161,-83)"
       id="g2576">
      <path
         d="m 531,353.9 c 17,2 34,7.4 48.6,16.5 a 57,57 0 0 1 18.3,16.9 c 0.9,1.2 1.2,3.5 -0.2,4.3 -1.2,1.2 -2.9,0.5 -4.2,0 a 143,143 0 0 0 -54,-15 c -13.4,-0.9 -28.2,-1 -41,3.8 -3,1 -5.6,3 -8.5,3.8 -1.4,0.3 -2.5,-1 -3,-2.2 a 18,18 0 0 1 0.3,-14.8 23,23 0 0 1 13.3,-10.7 A 72.5,72.5 0 0 1 531,354 Z M 414,408 c 8.2,2.4 14.6,10.9 13.6,19.5 -1.9,0.6 -3.6,1 -5.6,0.7 a 108,108 0 0 0 -42.8,5.9 c -14,4.7 -28.5,11.6 -39.4,21.8 -1.4,1.3 -4.3,3 -5.6,0.7 -1.7,-2.3 0,-4 1.4,-6 a 128,128 0 0 1 49,-39 c 8.8,-3.6 20,-6.5 29.4,-3.5 z"
         fill="#000000"
         id="path2574" />
    </g>
    <g
       transform="translate(-161,-83)"
       id="g2584">
      <path
         d="m 495.2,561 c 15.5,1.8 31.3,5.5 44.5,14.2 7,4.6 13.5,11.3 15.3,19.8 2.4,8.6 -3.6,18.2 -11.7,21.4 -7.2,3 -14,1.8 -21.3,0.1 -6,-1 -12,-1.6 -18,-1.8 -22.6,-1 -45.1,0.8 -67.2,5.8 -5.7,1 -11.1,3.2 -16.8,3.7 -6.5,0.1 -13,-3.1 -16.8,-8.5 -3,-4.1 -4.4,-9.6 -4.3,-14.7 0.6,-7.8 5.4,-15 11.2,-19.9 a 85,85 0 0 1 35.4,-16.8 157,157 0 0 1 49.7,-3.3 z"
         fill="#000000"
         id="path2578" />
      <path
         d="m 506,568.6 a 76,76 0 0 1 -35.8,13 92,92 0 0 1 -41.5,-5 c 8.8,-4.8 19.4,-7 29.2,-8.8 16.1,-2.2 32.1,-2.4 48,0.8 z"
         fill="#ffffff"
         id="path2580" />
      <path
         d="m 513.8,570.3 c 11,3.2 22.5,7.7 30.4,16.5 4.2,4.8 7,11.2 4,17.4 -3,6.2 -9.7,8.6 -16.2,8 a 234.4,234.4 0 0 0 -69,-2 239.8,239.8 0 0 0 -36,6.8 c -5.7,1.4 -11.3,2.1 -16.2,-1.8 -6.6,-5.3 -7.4,-14.6 -3.5,-21.8 A 40.2,40.2 0 0 1 422,579.8 c 4,2.5 8.4,3.7 13,5 a 95,95 0 0 0 67,-6.8 c 4.3,-2 7.8,-5.1 11.8,-7.7 z"
         fill="#8f2e45"
         id="path2582" />
    </g>
    <g
       transform="translate(-161,-83)"
       id="g2586" />
    <g
       transform="translate(-161,-83)"
       id="g2588" />
    <g
       transform="translate(-161,-83)"
       id="g2600">
      <path
         fill-rule="evenodd"
         clip-rule="evenodd"
         d="m 570,210 c 4,0.7 7.6,2.5 11.3,4.2 l 3.2,1.4 a 559.3,559.3 0 0 0 46.4,19.4 863.2,863.2 0 0 1 61.7,25.4 c 8.5,3.8 17.4,7.7 25,12.9 4.6,3.4 8.6,7.7 11.4,12.7 a 475.6,475.6 0 0 1 22.4,40.6 c 15,29.2 28.5,59.2 41.6,89.3 a 778,778 0 0 1 31.4,81.8 424,424 0 0 1 16.1,74.3 c 2.8,23 5,46.1 6,69.3 0.5,17 0.8,33.8 1,50.8 -0.4,2.4 -1.3,2.6 -3.5,2.2 -1.7,-1.6 -3,-3.7 -4.3,-5.8 a 177.3,177.3 0 0 0 -13.5,-19.6 l -6.7,-8.8 c -2.8,-3.8 -5.6,-7.6 -8.6,-11.2 -13.3,14.5 -30,22.5 -48.1,29.5 -3,8.6 -6.4,17 -10.2,25.2 -3.1,6.8 -6.5,14 -11.2,19.8 -1.3,1.8 -3.7,2 -4.6,-0.2 0,-2.4 0.8,-4.8 1.7,-7 l 0.1,-0.6 c 4,-10.4 6.5,-21.4 8.3,-32.4 -6.2,1.7 -12.5,3 -18.7,4.3 a 296.6,296.6 0 0 1 -31.9,72.8 c -7.9,12 -17.9,24.6 -31.1,30.9 -0.3,0 -0.6,0.2 -0.8,0.3 -2,0.9 -4.5,2 -6.3,0.5 -1.7,-1.6 -0.6,-3.8 0.4,-5.5 a 153,153 0 0 0 17,-48 387,387 0 0 0 6.5,-46.5 c -25.3,0.1 -50.2,-2.4 -74.5,-9.7 a 31,31 0 0 1 -6.8,-3.1 l 0.8,-3.7 A 219,219 0 0 0 684,623 l -0.3,-10.7 c 0,-4.4 0,-8.9 -0.5,-13.3 -0.7,-18.1 -2,-36.3 -3.7,-54.4 A 263.6,263.6 0 0 1 621.8,509.1 C 611.7,501.3 602,493 592.5,484.4 a 637.2,637.2 0 0 1 -93,-108 c -17,-25.4 -33,-52.9 -43.5,-81.6 a 373.2,373.2 0 0 0 -124.2,85.1 c -1.9,1.9 -3.6,3.8 -4.6,6.3 A 220.4,220.4 0 0 0 310.7,480 218.5,218.5 0 0 0 459.1,676.7 c 3.2,0.6 5.9,4.6 4.2,7.6 -1.4,1 -3.1,1.7 -4.8,2.4 a 381.5,381.5 0 0 0 -45.3,20.5 530.8,530.8 0 0 1 -54.2,24 c -11.7,4 -23.6,4.2 -35.6,4.5 -4.1,0.1 -8.3,0.2 -12.5,0.5 h -6.6 c -3.8,0 -7.7,0 -11.4,0.3 l -1.1,0.1 -1,0.1 c -2.4,0.2 -4.7,0.5 -7,0.4 -2.2,-0.2 -4.5,-1.6 -4.6,-4.1 -1.1,-9.3 -2,-18.6 -2.5,-28 -1,-14.2 -1,-28.6 -0.8,-43 v -10.5 c -20.7,25 -32.7,54.8 -40.5,86.1 -0.3,1.5 -1.1,2 -2.5,2.7 -2.2,-0.6 -3,-1.4 -3.3,-3.7 a 296.4,296.4 0 0 1 0,-65.6 c 2.5,-26 7.5,-51.7 14.7,-76.8 a 360.4,360.4 0 0 1 31.5,-77.5 c 1,-1.5 2,-3.1 2.6,-4.8 a 329.6,329.6 0 0 1 16.2,-80.3 l 4.7,-14.3 a 371.8,371.8 0 0 0 -36.8,58.3 277.3,277.3 0 0 0 -22.1,58.1 c -0.4,1.4 -1,3 -2.6,3 -1.7,0.3 -3.2,-1 -3.3,-2.7 l -0.3,-4 c -0.5,-5 -1,-10 -1.2,-15 a 243,243 0 0 1 37,-134 184.2,184.2 0 0 1 59,-60 c 2,-1.1 2.7,-2.9 3.3,-4.8 l 0.8,-2.2 0.3,-0.7 c 2.2,-5.7 4.6,-11.8 8.4,-16.6 3.7,-4.5 8.1,-8.8 13,-12 7.2,-4.5 15,-8.3 22.8,-12 a 1004.5,1004.5 0 0 0 18.6,-9 l 14.6,-7 L 433,246 c 10.8,-5.3 21.6,-10.5 32.6,-15.5 9.3,-4.3 18.4,-8.1 28.5,-10 8,-1.2 16.3,-0.8 24.2,0.2 2.6,0.4 5,-0.2 7.5,-1 9.3,-3.2 18.8,-5.3 28.4,-7.5 l 4.2,-1 c 3.8,-1 7.4,-2 11.8,-1.2 z m 2.8,129.2 4.8,3.6 a 1317.2,1317.2 0 0 1 48.7,37.7 c 6.3,5 12.5,10 18.4,15.8 3.3,3.2 6.4,6.7 9.4,10 l 4,4.6 c 1.7,1.5 2.1,3.5 2.5,5.6 6.8,33.7 12.4,67.7 16.2,101.8 a 494.5,494.5 0 0 1 -55.6,-59.5 583.7,583.7 0 0 1 -47.6,-69.4 441.4,441.4 0 0 1 -35.2,-73.7 l 3.3,2.1 c 10.5,7 21,13.8 31.1,21.4 z M 799.9,515 a 57.5,57.5 0 0 0 -14.7,-39 c 0.8,4.6 1,9.2 1.2,13.8 l 0.2,4.2 c 1.4,19.8 1.8,39.8 0.6,59.6 A 65.5,65.5 0 0 0 799.9,515 Z"
         fill="#000000"
         id="path2590" />
      <g
         fill="#562306"
         id="g2598">
        <path
           d="m 565,215.7 a 18,18 0 0 1 9.9,1.5 c 10.6,4.9 21.4,10.3 32.2,14.8 11.2,4.7 22.5,8.7 33.9,13 15.4,6 30.7,12.4 45.9,19.2 9,4 17.7,7.6 26,12.9 a 43,43 0 0 1 13.4,14.6 c 9.5,15.9 17.1,32.1 25.5,48.5 15,30 28.4,60.6 41.8,91.2 a 759.1,759.1 0 0 1 26.9,73.1 c 5.7,20 10.6,40.4 13.3,61 1.8,12.5 3,25 4.3,37.5 1.3,16 2.8,31.8 2.8,47.8 0.6,10 0.9,20 0.8,30.1 -6,-9.6 -13.2,-17.6 -19.9,-26.8 l -9.6,-12.5 c -3.2,-0.8 -4.9,2.9 -6.9,4.7 a 108.5,108.5 0 0 1 -40,24.9 c 11.7,-34.9 19.1,-71 21.2,-107.8 6,-6.7 11,-14.2 14.2,-22.6 a 68.6,68.6 0 0 0 2,-45.3 A 59,59 0 0 0 787,470 c -1.2,-1.3 -2.5,-2 -2.6,-4 -1.1,-9.1 -1.4,-18.5 -3,-27.6 -0.7,-2.7 -2.8,-1.9 -5,-2.1 -0.2,1.5 -0.6,3 -0.4,4.5 2.6,23.6 5,47.4 5.8,71.2 0.2,19 0.4,38 -1.4,57 A 408,408 0 0 1 751,693 c 2.2,-13.7 4.4,-27.2 5.6,-41 2,-20 2,-40 0.5,-60 -1.6,-15.1 -2.6,-30.5 -5.6,-45.5 l -2.5,-0.6 -2.3,1 -0.6,5.1 c -2.7,42.5 -9.4,85.1 -21.1,126 -2.1,6 -3.5,12.2 -5.7,18.2 -7.5,22.4 -17,45.3 -30.4,64.8 A 83.3,83.3 0 0 1 667,783.6 c 10.6,-21.7 15.4,-46.9 18.6,-70.6 1.7,-13 2.5,-26 3.5,-39 0.5,-12.7 0.6,-25.3 1,-38 -0.7,-17.6 -0.3,-35.5 -1.9,-53 -0.4,-12 -1.6,-24 -2.5,-36 a 69,69 0 0 0 26.4,4.3 c 2.8,-0.2 3.8,-4.2 1.1,-5.5 -10.5,-6.5 -20.5,-13.9 -29.9,-22 -4.2,-38 -10.4,-75.7 -18,-113.3 -2.6,-3.8 -6.2,-7 -9.2,-10.6 -9.5,-10.9 -20.5,-19.3 -31.6,-28.3 -15.2,-12.4 -30.8,-24 -46.5,-35.7 -12.7,-9.5 -26,-17.9 -39.5,-26.4 -2.3,-1.6 -4.2,-2 -7,-2.2 -0.5,1.8 -1,3.3 -0.2,5.2 a 403.3,403.3 0 0 0 25.9,59.3 c 16.6,31.3 36.2,61 58.1,88.8 17.9,22.5 37,43.6 58.5,62.6 8.8,7.4 17.6,14.9 27,21.6 -3.7,-0.5 -7.4,-1.4 -11,-2.6 A 161,161 0 0 1 661.7,529.3 404.5,404.5 0 0 1 585.4,469.6 628.3,628.3 0 0 1 501.8,369.2 c -13,-19.6 -25,-40.1 -34.4,-61.6 -6.3,-14.6 -11.7,-30.1 -13.7,-46 a 269.6,269.6 0 0 1 55.9,-30 312.4,312.4 0 0 1 55.4,-16 z"
           id="path2592" />
        <path
           d="m 509.3,225.5 a 282.6,282.6 0 0 0 -55.4,29.3 c -2.4,2 -5.5,3.8 -5.7,7.2 0.6,9.2 3.4,18.6 6,27.3 a 363,363 0 0 0 -98.3,60.5 c -31.4,26.7 -59,58 -81.2,92.8 a 318.1,318.1 0 0 0 -35.5,74.8 c -0.1,-9.1 -0.4,-18.3 0.3,-27.4 a 239,239 0 0 1 37.7,-109.8 c 17.8,-26.9 42.4,-51.3 72.7,-63.4 2.4,-1.3 2.4,-5.4 -0.6,-6.2 -3.9,1.5 -7.5,3.6 -11.3,5.2 2.3,-5.3 4.4,-11.3 8,-15.8 a 50,50 0 0 1 11.7,-10.3 c 8,-5 17,-9.3 25.6,-13.4 10.7,-5.3 21.6,-10.2 32.2,-15.6 19.8,-9.2 39.3,-19.3 59.2,-28 11.1,-4.8 22.4,-8.2 34.6,-7.2 z"
           id="path2594" />
        <path
           d="m 317.5,395.4 a 224.3,224.3 0 0 0 138,286.2 447,447 0 0 0 -41.3,18.7 c -18.8,9.2 -36.9,18.2 -56.7,25.3 -14,4.9 -27.1,3.7 -41.5,4.9 -10.4,0.4 -20.7,0 -31,1.4 a 342,342 0 0 1 -3,-42.9 1996,1996 0 0 1 -0.4,-51.9 c -0.2,-2 0.2,-5 -1.5,-6.5 -2.2,-0.3 -3.1,0.5 -3.7,2.6 -0.3,3.6 0,7.2 -0.3,10.8 -3.4,2.5 -5.5,5.8 -8,9 a 194.7,194.7 0 0 0 -33.6,67.8 c -1.8,-14 -0.6,-27.6 0.2,-41.8 a 439,439 0 0 1 22,-105 321.9,321.9 0 0 1 20.7,-48.2 c 0,5.4 -0.6,10.8 -0.6,16.2 0,7 -1,14 -0.9,21.1 0.1,1.7 0.4,3.3 2.3,3.7 1.9,0.4 3,-1 3.3,-2.7 0.7,-5.3 0.5,-10.8 0.8,-16.1 0.2,-11.3 1,-22.7 1.7,-34 a 339,339 0 0 1 15.9,-80.2 c 2.7,-8.6 5,-17.2 8.3,-25.6 1.4,-5 6,-8.7 9.3,-12.8 z m 432.9,188.2 c 1.4,10.4 1.6,21 2.1,31.4 0.3,20.6 -1.8,41.5 -4.7,62 -5.8,1.8 -11.7,3 -17.7,4.3 a 586,586 0 0 0 18,-89.3 c 0.5,-3.1 0,-6 2.3,-8.4 z M 684.2,631 c 0.2,11 -0.3,22 -0.4,33 -0.4,7.4 -1,14.8 -1.2,22.2 -23.7,0.5 -47.6,-2.1 -70.4,-8.4 A 227.9,227.9 0 0 0 682,633.1 l 2.2,-2 z"
           id="path2596" />
      </g>
    </g>
    <g
       transform="translate(-161,-83)"
       id="g2602" />
  </g>
</svg>
