<?xml version="1.0" encoding="UTF-8" standalone="no"?>
<svg
   viewBox="0 0 762 762"
   fill="none"
   shape-rendering="auto"
   width="512"
   height="512"
   version="1.1"
   id="svg53"
   sodipodi:docname="adventurer-1681889276977.svg"
   inkscape:export-filename="../../../run/user/1000/doc/2adb6967/avatar1.png"
   inkscape:export-xdpi="96"
   inkscape:export-ydpi="96"
   xmlns:inkscape="http://www.inkscape.org/namespaces/inkscape"
   xmlns:sodipodi="http://sodipodi.sourceforge.net/DTD/sodipodi-0.dtd"
   xmlns="http://www.w3.org/2000/svg"
   xmlns:svg="http://www.w3.org/2000/svg"
   xmlns:rdf="http://www.w3.org/1999/02/22-rdf-syntax-ns#"
   xmlns:cc="http://creativecommons.org/ns#"
   xmlns:dc="http://purl.org/dc/elements/1.1/">
  <defs
     id="defs57" />
  <sodipodi:namedview
     id="namedview55"
     pagecolor="#ffffff"
     bordercolor="#000000"
     borderopacity="0.25"
     inkscape:showpageshadow="2"
     inkscape:pageopacity="0.0"
     inkscape:pagecheckerboard="0"
     inkscape:deskcolor="#d1d1d1"
     showgrid="false"
     inkscape:zoom="0.91796875"
     inkscape:cx="227.13191"
     inkscape:cy="273.42979"
     inkscape:window-width="1366"
     inkscape:window-height="699"
     inkscape:window-x="0"
     inkscape:window-y="0"
     inkscape:window-maximized="1"
     inkscape:current-layer="svg53" />
  <desc
     id="desc2">&quot;Adventurer&quot; by &quot;Lisa Wischofsky&quot;, licensed under &quot;CC BY 4.0&quot;. / Remix of the original. - Created with dicebear.com</desc>
  <metadata
     id="metadata4">
    <rdf:RDF>
      <cc:Work>
        <dc:title>Adventurer</dc:title>
        <dc:creator>
          <cc:Agent
             rdf:about="https://www.instagram.com/lischi_art/">
            <dc:title>Lisa Wischofsky</dc:title>
          </cc:Agent>
        </dc:creator>
        <dc:source>https://www.figma.com/community/file/1184595184137881796</dc:source>
        <cc:license
           rdf:resource="https://creativecommons.org/licenses/by/4.0/" />
      </cc:Work>
    </rdf:RDF>
  </metadata>
  <mask
     id="viewboxMask">
    <rect
       width="762"
       height="762"
       rx="0"
       ry="0"
       x="0"
       y="0"
       fill="#ffffff"
       id="rect6" />
  </mask>
  <g
     inkscape:groupmode="layer"
     id="layer1"
     inkscape:label="Layer 1">
    <ellipse
       style="fill:#a4d7ff;fill-opacity:1;stroke-width:13.4663"
       id="path346"
       cx="383.3179"
       cy="363.70111"
       rx="334.35663"
       ry="330.4776" />
  </g>
  <g
     mask="url(#viewboxMask)"
     id="g51"
     transform="translate(6.8840922,8.9613531)">
    <path
       d="m 396,164.8 a 224.8,224.8 0 0 1 104.8,42.4 c 6.2,4.9 12.5,9.4 18,15 a 225.4,225.4 0 0 1 71.8,149 58.5,58.5 0 0 1 50.9,42.2 71,71 0 0 1 -27.6,76.5 c -11,7.7 -24.5,12 -38,11.7 -5,0 -10,-1.6 -15,-1.8 -1.9,2.2 -3.3,4.9 -4.8,7.3 A 223.3,223.3 0 0 1 389,609.8 c -11,0.7 -21.9,2 -33,0.7 A 223.7,223.7 0 0 1 177.2,268.2 223.4,223.4 0 0 1 352,163.5 c 14.6,-1.4 29.4,-0.3 44,1.3 z"
       fill="#000000"
       id="path9" />
    <path
       fill-rule="evenodd"
       clip-rule="evenodd"
       d="M 498.8,213.2 A 216,216 0 0 0 363,169 c -13,-0.2 -26.2,1.6 -39,4 a 218,218 0 0 0 -113.6,365.5 218.5,218.5 0 0 0 260.4,40.2 c 35,-18.8 64.2,-47.3 84.4,-81.5 l -3,-1.6 c -2.8,-1.4 -5.7,-3 -8,-5 -2.2,-2 -0.3,-5.8 2.7,-4.7 1.5,0.7 3,1.6 4.4,2.4 a 55,55 0 0 0 59.6,-3.6 64.5,64.5 0 0 0 25,-69.8 53.1,53.1 0 0 0 -24,-31 52.6,52.6 0 0 0 -47,-2.8 c -1.6,0.8 -3.4,1.5 -5,1.3 -2.5,-0.2 -2.8,-4.2 -0.6,-5.2 8,-4 16.5,-5.6 25.4,-6.4 a 217,217 0 0 0 -72,-146.4 c -4.4,-4 -8.7,-8.1 -13.9,-11.3 z m 107.6,196.2 c 2,-1.2 1.3,-5.1 -1.4,-5 -2,0 -4.2,0.8 -6.2,1.6 l -1.4,0.4 a 95.1,95.1 0 0 0 -25.5,12.4 c -2.2,2 -2.2,4.4 0.1,6.2 a 92,92 0 0 0 5.2,2.8 36,36 0 0 1 13,9.2 c -0.2,1.9 -2,3.4 -3.4,4.5 l -0.2,0.2 c -3.9,3 -8.8,5 -13.6,7 -2.5,1 -4.9,2 -7.1,3.1 -1.7,0.8 -2.6,2.2 -1.6,3.9 1,2 3.2,1.1 5,0.5 l 0.6,-0.2 5.4,-2.3 c 5.4,-2.3 11,-4.5 15.4,-8 2.7,-2.1 5.1,-5.1 5.4,-8.7 -0.5,-3.4 -2.7,-5.7 -5.3,-7.8 A 83,83 0 0 0 579.2,422 l -1.1,-0.6 c 5.4,-3 10.8,-5.6 16.6,-7.7 l 5,-1.7 a 52,52 0 0 0 6.7,-2.6 z"
       fill="#f2d3b1"
       id="path11" />
    <g
       transform="translate(-161,-83)"
       id="g23">
      <path
         d="M 551.3,424.3 A 65.4,65.4 0 0 1 610.9,525.9 65.2,65.2 0 1 1 551.3,424.3 Z"
         fill="#000000"
         id="path13" />
      <path
         d="M 549.3,430.3 A 59.6,59.6 0 1 1 564.5,548.5 59.6,59.6 0 0 1 549.3,430.3 Z"
         fill="#ffffff"
         id="path15" />
      <path
         d="m 381.2,447 a 55.4,55.4 0 0 1 58.7,40 55.5,55.5 0 0 1 -26.7,63.1 54.7,54.7 0 0 1 -81.3,-46.1 55.1,55.1 0 0 1 49.4,-57 z"
         fill="#000000"
         id="path17" />
      <path
         d="m 378.3,453.3 a 49,49 0 0 1 57.2,56.6 49.1,49.1 0 0 1 -93.1,12.9 49.3,49.3 0 0 1 35.9,-69.5 z"
         fill="#ffffff"
         id="path19" />
      <path
         d="m 526.5,467.5 c 12,-2.9 24.9,4.2 29.3,15.6 a 26,26 0 0 1 0,18.7 25.6,25.6 0 1 1 -29.3,-34.3 z m -128.2,10.9 a 23.2,23.2 0 0 1 27,18 c 0.7,5.7 0.6,11.4 -2.6,16.2 a 23.4,23.4 0 0 1 -23.6,11.2 23.1,23.1 0 0 1 -0.8,-45.4 z"
         fill="#000000"
         id="path21" />
    </g>
    <g
       transform="translate(-161,-83)"
       id="g27">
      <path
         d="m 414.2,389.8 c -5.5,-7.2 -14.5,-9.3 -23.2,-8.3 a 68,68 0 0 0 -34.5,17 87.2,87.2 0 0 0 -24.7,35.3 c -0.7,2 -1.3,4.7 1,5.8 2.1,0.2 2.9,0 4.1,-1.7 a 117.4,117.4 0 0 1 43.6,-35.4 61,61 0 0 1 26.5,-5.7 c 1,0 2.1,0.2 3.2,0.4 1.7,0.3 3.3,0.6 5,0.3 2.8,-2.2 0.7,-5.3 -1,-7.5 z m 178.7,18.3 a 147.2,147.2 0 0 0 -59,-19 c -10,-0.7 -21.4,-0.1 -30.6,4.2 -6.8,3.1 -12.4,8.5 -13.6,16.2 l -0.1,1 c -0.4,2.8 -1,6.7 1.3,8.7 2,0.8 3.6,-0.3 5.2,-1.4 l 2.3,-1.4 a 111,111 0 0 1 45.6,-9.7 c 15.5,0 31.4,2.1 46,7.2 l 0.5,0.1 c 1.5,0.4 2.7,0.8 3.9,-0.6 1.8,-1.9 0.5,-4.2 -1.5,-5.2 z"
         fill="#000000"
         id="path25" />
    </g>
    <g
       transform="translate(-161,-83)"
       id="g33">
      <path
         d="m 505,609.6 c 4.7,1.3 9,4.7 12.2,8.2 1.4,1.7 3.6,3.9 3,6.2 -0.4,2.5 -3.7,3 -5,0.8 a 27.5,27.5 0 0 0 -9.4,-8.5 c -2.3,-1.5 -6.8,-0.6 -6.7,-4.2 0.5,-3 3.6,-2.9 6,-2.5 z m -7,13.4 c 5,1.5 8.4,5.8 8.8,11 1.3,13.2 -9.4,25.8 -21.8,29.2 -12.4,3.7 -28.8,-1 -35,-13.2 -2.5,-4.2 -3.8,-9.2 -2,-14 1.8,-4 5.8,-5.6 10,-6 5,-0.6 9.5,1 13.9,3.5 3.8,-4 7.7,-7.6 12.9,-9.8 4,-1.8 9,-2 13.2,-0.7 z"
         fill="#000000"
         id="path29" />
      <path
         d="m 499,630 c 3.2,3.5 2.2,9.6 0.4,13.5 a 25.5,25.5 0 0 1 -26,15 c -7.2,-1.2 -14.2,-4.1 -18.1,-10.8 -1.4,-2.6 -3.4,-6.6 -2,-9.4 2.2,-3.8 8.7,-3.2 12.2,-1.8 2.8,0.7 5.6,4 8.4,3.5 3.7,-3.5 6.5,-7.4 11.2,-9.8 4.3,-2.4 9.6,-3.3 13.8,-0.1 z"
         fill="#8f2e45"
         id="path31" />
    </g>
    <g
       transform="translate(-161,-83)"
       id="g35" />
    <g
       transform="translate(-161,-83)"
       id="g37" />
    <g
       transform="translate(-161,-83)"
       id="g47">
      <path
         d="m 577,186 c 12.6,0.5 25,2.9 36.7,7.3 19.3,7.5 37,19.8 51.1,34.9 10,10.3 18.5,22.2 28.2,32.8 a 98,98 0 0 0 18,15 c 9.3,6 20.4,8.5 30.9,12 11.4,3.5 22.5,8 32.5,14.6 16,10.6 28,27.7 34,45.9 a 80.7,80.7 0 0 1 3.3,42.2 c -0.5,2 -4,2.4 -4.9,0.4 -1.5,-3.1 -2.5,-6.5 -4.3,-9.6 a 99,99 0 0 0 -19.1,-23.6 47,47 0 0 1 6.3,40.6 c -2.2,7 -6.9,12.2 -11.8,17.5 1,5 2.4,9.9 2.8,15 a 39,39 0 0 1 -4,21.6 c -1.9,3.6 -3.9,8.2 -7.2,10.8 -2.4,1 -5.6,-1.4 -8,-2 A 31.3,31.3 0 0 0 748,459.8 c -1,1.2 -1.6,2.6 -2.3,3.9 -6.3,12.6 -14,24.5 -22,36 a 136,136 0 0 1 -30,31 c -3.4,2.2 -8.1,5 -12.1,2.7 -3.6,-2.5 -3.4,-8 -3,-12 2.1,-16.2 1.1,-33.1 1.3,-49.7 a 81.8,81.8 0 0 1 -39.2,-10.4 90.3,90.3 0 0 1 -47.1,-75.4 83.7,83.7 0 0 1 -35.8,15.7 c -3,0.5 -7.2,1.4 -10,-0.4 -1.4,-2.2 -0.6,-3.6 1,-5.3 a 88.5,88.5 0 0 0 26.1,-42 42.6,42.6 0 0 0 -7,-37.8 45,45 0 0 0 -25.7,-14.7 75.2,75.2 0 0 0 -33.2,0.8 c -1.8,0.3 -3.3,1 -5,0 -2,-2.1 -1.3,-4.4 -1.2,-7 A 108.9,108.9 0 0 0 473,310 c -1.7,1.1 -3,2 -5,1.2 -3,-1.3 -5.3,-4.2 -8.1,-6 a 85,85 0 0 0 -32.8,-12 c 3,2.7 6.5,5.4 9.1,8.6 1.3,1.7 1.7,3.9 0,5.5 -1.7,1 -4.2,0.7 -6.2,0.8 -12.1,-0.1 -25,0.4 -36.5,4.5 -2.9,2.1 -4.7,6.3 -6.6,9.3 A 141.4,141.4 0 0 0 368.1,396 c -0.1,1.5 0,3 -0.9,4.2 -2.4,1.4 -4.1,0 -6.2,-1.1 -6.5,-4 -12.8,-8.9 -17.7,-14.8 a 45.6,45.6 0 0 1 -24.5,22.6 c -3,8.2 -4,17.4 -5.9,26.1 -1,4.7 -1.2,9.6 -2.3,14.3 -0.6,2.4 -3.5,2.9 -4.9,0.8 -8.8,-11.7 -10.6,-25.5 -12.6,-39.6 -4.5,-1.1 -8.7,-2.5 -12.4,-5.2 -2.3,-1.7 -5.2,-4.2 -5.3,-7.3 -0.2,-1.6 1.9,-2.7 3,-3.7 3.7,-2.7 7,-5.8 10.4,-8.9 -9,-3 -16.3,-9.6 -19.8,-18.5 a 49.3,49.3 0 0 1 1.7,-36.2 87.2,87.2 0 0 1 37.3,-41.7 71.2,71.2 0 0 1 30,-9.3 c 2.5,-12.2 6.5,-24 12.7,-35 a 93.2,93.2 0 0 1 95.3,-46.5 115,115 0 0 1 53.2,23.2 c 6.4,-5.8 13,-11.3 20.3,-15.8 A 108,108 0 0 1 577,186 Z"
         fill="#000000"
         id="path39" />
      <g
         fill="#e5d7a3"
         id="g45">
        <path
           d="m 574,191.8 a 107,107 0 0 1 40.2,8 135,135 0 0 1 45.5,31.5 c 11.2,11 20.2,24.6 31.2,35.8 8.1,8 17.1,15.2 27.9,19.3 14.8,5.8 30.2,8.7 44.4,16.4 a 77.3,77.3 0 0 1 26.1,21.8 89.1,89.1 0 0 1 18.1,53.5 c -9,-14.4 -21.7,-28.9 -37.4,-36.1 -2.3,-1.2 -5,0.4 -4.4,3 1.2,2.4 3.4,4.3 5.1,6.2 4.4,4.7 8.8,9.8 11.5,15.6 4.6,9.6 5.1,21 1.6,31 -1.8,5.2 -5.3,9 -9,13 -1.3,1.6 -3.2,2.8 -2.4,5.1 2,8.8 4,16.9 2.2,26 -1.5,5.6 -4.2,11 -7.4,15.8 -5.4,-2 -10.6,-3.2 -16.4,-3.6 0.3,-1.7 1,-3.6 0.4,-5.1 -1,-1.1 -2.5,-1.8 -3.9,-0.7 -1,1 -1.7,2.5 -2.3,3.8 -7.6,16.3 -17,31.7 -27.6,46.4 -5.2,6.9 -11,13.6 -17.4,19.5 a 56,56 0 0 1 -15.3,10.9 c -1,-4.7 0,-9 0.2,-13.7 0.6,-8.7 1,-17.5 0.6,-26.2 -0.4,-5.9 -0.3,-11.7 -0.3,-17.6 a 60.6,60.6 0 0 0 39.2,-18.2 c 1.7,-2 1.1,-4.4 -1.5,-5 a 38.3,38.3 0 0 1 -14,-6.6 c 8.5,0.3 16.9,-0.5 24.8,-3.8 A 45,45 0 0 0 758,416 a 40,40 0 0 0 3,-24 c -0.4,-2.8 -4.1,-4.2 -5.2,-1 0.6,7.7 1.2,15 -2.6,22.2 -8,16.7 -28.6,24.7 -46.2,22.3 -2.2,-0.3 -5.2,-2 -7.2,-0.8 -0.5,0.7 -0.9,1.4 -1,2.3 3.6,8 10.6,12 18.3,15.3 a 58.1,58.1 0 0 1 -47,13 85.5,85.5 0 0 1 -65.6,-53.8 c -3.9,-9.8 -5.3,-20 -5.4,-30.5 0,-2.8 -3.2,-4.2 -5.3,-2.1 a 76.3,76.3 0 0 1 -36.7,17 101,101 0 0 0 20.3,-30.7 62,62 0 0 0 4.4,-31.2 c -1.3,-9.3 -5.5,-18 -12.2,-24.6 a 53.7,53.7 0 0 0 -33.6,-14.8 84.3,84.3 0 0 0 -26.9,1.7 c 0.5,-2.3 1.9,-4.4 0.2,-6.5 -1.4,-1.9 -4.2,-0.8 -6.1,-0.5 a 111,111 0 0 0 -33.6,16.5 C 457,293.5 437,288.3 420,286.3 c -17.2,-2 -35.1,-0.7 -51.8,4 a 80.7,80.7 0 0 0 -14.3,5.5 c -2.2,1.1 -2.1,4.4 0.2,5.2 1.2,0.7 2.9,-0.4 4,-0.8 15.7,-7.1 34,-9.3 51,-9 3.1,0.2 7,0 9.7,2.1 3.8,2.8 7.2,6.2 10.8,9.3 a 105,105 0 0 0 -37,4.2 c -3.7,1.6 -6,5.4 -8.1,8.7 -5,8.2 -9.8,17 -13.1,26 -6.3,16.5 -9,34.4 -9.2,52 -7,-4.6 -14,-10.2 -18,-17.7 -1.6,-2.7 -2.5,-5.6 -3.6,-8.5 -1,-2.1 -4.5,-2 -4.9,0.7 -0.4,3.7 2.2,8 4,11.1 -3,8 -8.6,14.4 -15.7,19 -7,4.3 -14.9,5.5 -23,5.2 -7.1,0.1 -13.8,-1.9 -19.3,-6.5 4.5,-4.1 9.6,-7.9 13.7,-12.4 a 3,3 0 0 0 -0.2,-4.8 c -2,-1 -4.3,-1.6 -6.4,-2.4 a 25.7,25.7 0 0 1 -14.1,-13.7 38,38 0 0 1 -1.7,-22.7 73.8,73.8 0 0 1 22,-36.9 69.8,69.8 0 0 1 43,-20.1 c 1.6,-0.2 3.1,-0.3 4.5,-1.3 1.4,-2.2 1.6,-5.4 2.2,-8 3,-13.1 8.3,-25.8 16,-36.7 a 86.7,86.7 0 0 1 84.7,-35.9 109,109 0 0 1 49.4,21.4 c -1.4,1.7 -5.6,3.9 -4.4,6.5 0.3,1.5 2.4,2 3.5,1.1 5.6,-3.8 10.3,-9 15.7,-13.3 18.2,-14.8 40.7,-25 64.4,-25.8 z"
           id="path41" />
        <path
           d="m 298.6,409.2 c 4.7,0 9.4,0 14,-1 -2.6,9.9 -4.2,20 -6.3,30 a 86.2,86.2 0 0 1 -7.7,-29 z"
           id="path43" />
      </g>
    </g>
    <g
       transform="translate(-161,-83)"
       id="g49" />
  </g>
</svg>
